<svg width="285" height="50" viewBox="0 0 285 50" fill="none" xmlns="http://www.w3.org/2000/svg">
<path d="M0.316 39V2.6H18.1C22.676 2.6 26.108 3.46666 28.396 5.2C30.7187 6.93333 31.88 9.22133 31.88 12.064C31.88 13.9707 31.412 15.6347 30.476 17.056C29.54 18.4427 28.2573 19.5173 26.628 20.28C24.9987 21.0427 23.1267 21.424 21.012 21.424L22 19.292C24.288 19.292 26.316 19.6733 28.084 20.436C29.852 21.164 31.2213 22.256 32.192 23.712C33.1973 25.168 33.7 26.9533 33.7 29.068C33.7 32.188 32.4693 34.632 30.008 36.4C27.5467 38.1333 23.924 39 19.14 39H0.316ZM8.688 32.656H18.516C20.7 32.656 22.3467 32.3093 23.456 31.616C24.6 30.888 25.172 29.744 25.172 28.184C25.172 26.6587 24.6 25.532 23.456 24.804C22.3467 24.0413 20.7 23.66 18.516 23.66H8.064V17.524H17.06C19.1053 17.524 20.6653 17.1773 21.74 16.484C22.8493 15.756 23.404 14.664 23.404 13.208C23.404 11.7867 22.8493 10.7293 21.74 10.036C20.6653 9.308 19.1053 8.944 17.06 8.944H8.688V32.656ZM39.5057 39V0.415998H47.6177V39H39.5057ZM68.4583 39.416C65.477 39.416 62.825 38.792 60.5023 37.544C58.2143 36.296 56.3943 34.5973 55.0423 32.448C53.725 30.264 53.0663 27.7853 53.0663 25.012C53.0663 22.204 53.725 19.7253 55.0423 17.576C56.3943 15.392 58.2143 13.6933 60.5023 12.48C62.825 11.232 65.477 10.608 68.4583 10.608C71.405 10.608 74.0397 11.232 76.3623 12.48C78.685 13.6933 80.505 15.3747 81.8223 17.524C83.1397 19.6733 83.7983 22.1693 83.7983 25.012C83.7983 27.7853 83.1397 30.264 81.8223 32.448C80.505 34.5973 78.685 36.296 76.3623 37.544C74.0397 38.792 71.405 39.416 68.4583 39.416ZM68.4583 32.76C69.8103 32.76 71.0237 32.448 72.0983 31.824C73.173 31.2 74.0223 30.316 74.6463 29.172C75.2703 27.9933 75.5823 26.6067 75.5823 25.012C75.5823 23.3827 75.2703 21.996 74.6463 20.852C74.0223 19.708 73.173 18.824 72.0983 18.2C71.0237 17.576 69.8103 17.264 68.4583 17.264C67.1063 17.264 65.893 17.576 64.8183 18.2C63.7437 18.824 62.877 19.708 62.2183 20.852C61.5943 21.996 61.2823 23.3827 61.2823 25.012C61.2823 26.6067 61.5943 27.9933 62.2183 29.172C62.877 30.316 63.7437 31.2 64.8183 31.824C65.893 32.448 67.1063 32.76 68.4583 32.76ZM102.377 49.504C99.7419 49.504 97.1939 49.1747 94.7326 48.516C92.3059 47.892 90.2779 46.9387 88.6486 45.656L91.8726 39.832C93.0512 40.8027 94.5419 41.5653 96.3446 42.12C98.1819 42.7093 99.9846 43.004 101.753 43.004C104.63 43.004 106.71 42.3627 107.993 41.08C109.31 39.7973 109.969 37.8907 109.969 35.36V31.148L110.489 24.128L110.385 17.056V11.024H118.081V34.32C118.081 39.52 116.729 43.3507 114.025 45.812C111.321 48.2733 107.438 49.504 102.377 49.504ZM101.129 37.648C98.5286 37.648 96.1712 37.0933 94.0566 35.984C91.9766 34.84 90.2952 33.2627 89.0126 31.252C87.7646 29.2067 87.1406 26.832 87.1406 24.128C87.1406 21.3893 87.7646 19.0147 89.0126 17.004C90.2952 14.9587 91.9766 13.3813 94.0566 12.272C96.1712 11.1627 98.5286 10.608 101.129 10.608C103.486 10.608 105.566 11.0933 107.369 12.064C109.171 13 110.575 14.4733 111.581 16.484C112.586 18.46 113.089 21.008 113.089 24.128C113.089 27.2133 112.586 29.7613 111.581 31.772C110.575 33.748 109.171 35.2213 107.369 36.192C105.566 37.1627 103.486 37.648 101.129 37.648ZM102.741 30.992C104.162 30.992 105.427 30.7147 106.537 30.16C107.646 29.5707 108.513 28.756 109.137 27.716C109.761 26.676 110.073 25.48 110.073 24.128C110.073 22.7413 109.761 21.5453 109.137 20.54C108.513 19.5 107.646 18.7027 106.537 18.148C105.427 17.5587 104.162 17.264 102.741 17.264C101.319 17.264 100.054 17.5587 98.9446 18.148C97.8352 18.7027 96.9512 19.5 96.2926 20.54C95.6686 21.5453 95.3566 22.7413 95.3566 24.128C95.3566 25.48 95.6686 26.676 96.2926 27.716C96.9512 28.756 97.8352 29.5707 98.9446 30.16C100.054 30.7147 101.319 30.992 102.741 30.992ZM140.929 39V2.6H156.685C159.944 2.6 162.752 3.13733 165.109 4.212C167.467 5.252 169.287 6.76 170.569 8.736C171.852 10.712 172.493 13.0693 172.493 15.808C172.493 18.512 171.852 20.852 170.569 22.828C169.287 24.804 167.467 26.3293 165.109 27.404C162.752 28.444 159.944 28.964 156.685 28.964H145.609L149.353 25.168V39H140.929ZM149.353 26.104L145.609 22.1H156.217C158.817 22.1 160.759 21.5453 162.041 20.436C163.324 19.3267 163.965 17.784 163.965 15.808C163.965 13.7973 163.324 12.2373 162.041 11.128C160.759 10.0187 158.817 9.464 156.217 9.464H145.609L149.353 5.46V26.104ZM191.197 39.416C188.215 39.416 185.563 38.792 183.241 37.544C180.953 36.296 179.133 34.5973 177.781 32.448C176.463 30.264 175.805 27.7853 175.805 25.012C175.805 22.204 176.463 19.7253 177.781 17.576C179.133 15.392 180.953 13.6933 183.241 12.48C185.563 11.232 188.215 10.608 191.197 10.608C194.143 10.608 196.778 11.232 199.101 12.48C201.423 13.6933 203.243 15.3747 204.561 17.524C205.878 19.6733 206.537 22.1693 206.537 25.012C206.537 27.7853 205.878 30.264 204.561 32.448C203.243 34.5973 201.423 36.296 199.101 37.544C196.778 38.792 194.143 39.416 191.197 39.416ZM191.197 32.76C192.549 32.76 193.762 32.448 194.837 31.824C195.911 31.2 196.761 30.316 197.385 29.172C198.009 27.9933 198.321 26.6067 198.321 25.012C198.321 23.3827 198.009 21.996 197.385 20.852C196.761 19.708 195.911 18.824 194.837 18.2C193.762 17.576 192.549 17.264 191.197 17.264C189.845 17.264 188.631 17.576 187.557 18.2C186.482 18.824 185.615 19.708 184.957 20.852C184.333 21.996 184.021 23.3827 184.021 25.012C184.021 26.6067 184.333 27.9933 184.957 29.172C185.615 30.316 186.482 31.2 187.557 31.824C188.631 32.448 189.845 32.76 191.197 32.76ZM221.371 39.416C218.979 39.416 216.674 39.1387 214.455 38.584C212.271 37.9947 210.538 37.2667 209.255 36.4L211.959 30.576C213.242 31.3733 214.75 32.032 216.483 32.552C218.251 33.0373 219.984 33.28 221.683 33.28C223.555 33.28 224.872 33.0547 225.635 32.604C226.432 32.1533 226.831 31.5293 226.831 30.732C226.831 30.0733 226.519 29.588 225.895 29.276C225.306 28.9293 224.508 28.6693 223.503 28.496C222.498 28.3227 221.388 28.1493 220.175 27.976C218.996 27.8027 217.8 27.5773 216.587 27.3C215.374 26.988 214.264 26.5373 213.259 25.948C212.254 25.3587 211.439 24.5613 210.815 23.556C210.226 22.5507 209.931 21.2507 209.931 19.656C209.931 17.888 210.434 16.328 211.439 14.976C212.479 13.624 213.97 12.5667 215.911 11.804C217.852 11.0067 220.175 10.608 222.879 10.608C224.786 10.608 226.727 10.816 228.703 11.232C230.679 11.648 232.326 12.2547 233.643 13.052L230.939 18.824C229.587 18.0267 228.218 17.4893 226.831 17.212C225.479 16.9 224.162 16.744 222.879 16.744C221.076 16.744 219.759 16.9867 218.927 17.472C218.095 17.9573 217.679 18.5813 217.679 19.344C217.679 20.0373 217.974 20.5573 218.563 20.904C219.187 21.2507 220.002 21.528 221.007 21.736C222.012 21.944 223.104 22.1347 224.283 22.308C225.496 22.4467 226.71 22.672 227.923 22.984C229.136 23.296 230.228 23.7467 231.199 24.336C232.204 24.8907 233.019 25.6707 233.643 26.676C234.267 27.6467 234.579 28.9293 234.579 30.524C234.579 32.2573 234.059 33.8 233.019 35.152C231.979 36.4693 230.471 37.5093 228.495 38.272C226.554 39.0347 224.179 39.416 221.371 39.416ZM251.024 39.416C247.731 39.416 245.165 38.584 243.328 36.92C241.491 35.2213 240.572 32.708 240.572 29.38V4.836H248.684V29.276C248.684 30.4547 248.996 31.3733 249.62 32.032C250.244 32.656 251.093 32.968 252.168 32.968C253.451 32.968 254.543 32.6213 255.444 31.928L257.628 37.648C256.796 38.2373 255.791 38.688 254.612 39C253.468 39.2773 252.272 39.416 251.024 39.416ZM236.256 17.888V11.648H255.652V17.888H236.256ZM271.594 39.416C269.202 39.416 266.896 39.1387 264.678 38.584C262.494 37.9947 260.76 37.2667 259.478 36.4L262.182 30.576C263.464 31.3733 264.972 32.032 266.706 32.552C268.474 33.0373 270.207 33.28 271.906 33.28C273.778 33.28 275.095 33.0547 275.858 32.604C276.655 32.1533 277.054 31.5293 277.054 30.732C277.054 30.0733 276.742 29.588 276.118 29.276C275.528 28.9293 274.731 28.6693 273.725 28.496C272.72 28.3227 271.611 28.1493 270.398 27.976C269.219 27.8027 268.023 27.5773 266.81 27.3C265.596 26.988 264.487 26.5373 263.482 25.948C262.476 25.3587 261.662 24.5613 261.038 23.556C260.448 22.5507 260.153 21.2507 260.153 19.656C260.153 17.888 260.656 16.328 261.662 14.976C262.702 13.624 264.192 12.5667 266.134 11.804C268.075 11.0067 270.398 10.608 273.102 10.608C275.008 10.608 276.95 10.816 278.926 11.232C280.902 11.648 282.548 12.2547 283.866 13.052L281.162 18.824C279.81 18.0267 278.44 17.4893 277.054 17.212C275.702 16.9 274.384 16.744 273.102 16.744C271.299 16.744 269.982 16.9867 269.15 17.472C268.318 17.9573 267.902 18.5813 267.902 19.344C267.902 20.0373 268.196 20.5573 268.786 20.904C269.41 21.2507 270.224 21.528 271.23 21.736C272.235 21.944 273.327 22.1347 274.506 22.308C275.719 22.4467 276.932 22.672 278.146 22.984C279.359 23.296 280.451 23.7467 281.422 24.336C282.427 24.8907 283.242 25.6707 283.866 26.676C284.49 27.6467 284.802 28.9293 284.802 30.524C284.802 32.2573 284.282 33.8 283.242 35.152C282.202 36.4693 280.694 37.5093 278.718 38.272C276.776 39.0347 274.402 39.416 271.594 39.416Z" fill="#D05270"/>
</svg>
