<svg width="475" height="48" viewBox="0 0 475 48" fill="none" xmlns="http://www.w3.org/2000/svg">
<path d="M0.46 40H5.66V3.6H0.46V40ZM43.7305 34.8C42.6905 35.632 41.2865 36.1 39.8305 36.1C37.0745 36.1 35.5145 34.436 35.5145 31.472V16.548H43.4185V12.44H35.5145V6.408H30.5225V12.44H25.8425V16.548H30.5225V31.68C30.5225 37.244 33.6945 40.312 39.2585 40.312C41.4945 40.312 43.7825 39.688 45.2905 38.388L43.7305 34.8ZM66.0418 12.18C61.8298 12.18 58.3978 13.688 56.3178 16.34V1.416H51.3258V40H56.3178V25.804C56.3178 19.824 59.7498 16.652 65.0538 16.652C69.7858 16.652 72.4898 19.304 72.4898 24.712V40H77.4818V24.14C77.4818 16.028 72.7498 12.18 66.0418 12.18ZM89.2163 7.136C91.1923 7.136 92.5963 5.68 92.5963 3.808C92.5963 2.04 91.1403 0.635998 89.2163 0.635998C87.2923 0.635998 85.8363 2.092 85.8363 3.912C85.8363 5.732 87.2923 7.136 89.2163 7.136ZM86.7203 40H91.7123V12.44H86.7203V40ZM115.96 12.18C111.592 12.18 108.056 13.792 106.028 16.6V12.44H101.244V40H106.236V25.804C106.236 19.824 109.668 16.652 114.972 16.652C119.704 16.652 122.408 19.304 122.408 24.712V40H127.4V24.14C127.4 16.028 122.668 12.18 115.96 12.18ZM157.698 40H163.834L151.094 23.828L162.69 12.44H156.658L141.63 26.168V1.416H136.638V40H141.63V32.46L147.35 27.156L157.698 40ZM190.55 40.312C197.882 40.312 202.458 37.14 202.458 32.148C202.458 21.436 184.986 26.74 184.986 20.24C184.986 18.056 187.118 16.444 191.486 16.444C194.19 16.444 196.946 17.016 199.442 18.628L201.574 14.676C199.182 13.116 195.126 12.18 191.538 12.18C184.466 12.18 180.046 15.508 180.046 20.448C180.046 31.42 197.466 26.064 197.466 32.252C197.466 34.592 195.542 35.996 190.914 35.996C187.326 35.996 183.582 34.8 181.242 33.136L179.162 37.088C181.45 38.908 185.974 40.312 190.55 40.312ZM220.501 40.312C228.769 40.312 234.801 34.436 234.801 26.22C234.801 18.004 228.769 12.18 220.501 12.18C212.233 12.18 206.149 18.004 206.149 26.22C206.149 34.436 212.233 40.312 220.501 40.312ZM220.501 35.944C215.197 35.944 211.193 32.096 211.193 26.22C211.193 20.344 215.197 16.548 220.501 16.548C225.805 16.548 229.757 20.344 229.757 26.22C229.757 32.096 225.805 35.944 220.501 35.944ZM242.343 33.188C240.367 33.188 238.859 34.644 238.859 36.724C238.859 38.284 239.743 39.48 241.043 39.948L239.119 47.696H242.395L244.839 40.468C245.515 38.544 245.723 37.764 245.723 36.724C245.723 34.696 244.319 33.188 242.343 33.188ZM280.777 34.8C279.737 35.632 278.333 36.1 276.877 36.1C274.121 36.1 272.561 34.436 272.561 31.472V16.548H280.465V12.44H272.561V6.408H267.569V12.44H262.889V16.548H267.569V31.68C267.569 37.244 270.741 40.312 276.305 40.312C278.541 40.312 280.829 39.688 282.337 38.388L280.777 34.8ZM303.089 12.18C298.877 12.18 295.445 13.688 293.365 16.34V1.416H288.373V40H293.365V25.804C293.365 19.824 296.797 16.652 302.101 16.652C306.833 16.652 309.537 19.304 309.537 24.712V40H314.529V24.14C314.529 16.028 309.797 12.18 303.089 12.18ZM326.263 7.136C328.239 7.136 329.643 5.68 329.643 3.808C329.643 2.04 328.187 0.635998 326.263 0.635998C324.339 0.635998 322.883 2.092 322.883 3.912C322.883 5.732 324.339 7.136 326.263 7.136ZM323.767 40H328.759V12.44H323.767V40ZM346.195 40.312C353.527 40.312 358.103 37.14 358.103 32.148C358.103 21.436 340.631 26.74 340.631 20.24C340.631 18.056 342.763 16.444 347.131 16.444C349.835 16.444 352.591 17.016 355.087 18.628L357.219 14.676C354.827 13.116 350.771 12.18 347.183 12.18C340.111 12.18 335.691 15.508 335.691 20.448C335.691 31.42 353.111 26.064 353.111 32.252C353.111 34.592 351.187 35.996 346.559 35.996C342.971 35.996 339.227 34.8 336.887 33.136L334.807 37.088C337.095 38.908 341.619 40.312 346.195 40.312ZM380.802 7.136C382.778 7.136 384.182 5.68 384.182 3.808C384.182 2.04 382.726 0.635998 380.802 0.635998C378.878 0.635998 377.422 2.092 377.422 3.912C377.422 5.732 378.878 7.136 380.802 7.136ZM378.306 40H383.298V12.44H378.306V40ZM400.734 40.312C408.066 40.312 412.642 37.14 412.642 32.148C412.642 21.436 395.17 26.74 395.17 20.24C395.17 18.056 397.302 16.444 401.67 16.444C404.374 16.444 407.13 17.016 409.626 18.628L411.758 14.676C409.366 13.116 405.31 12.18 401.722 12.18C394.65 12.18 390.23 15.508 390.23 20.448C390.23 31.42 407.65 26.064 407.65 32.252C407.65 34.592 405.726 35.996 401.098 35.996C397.51 35.996 393.766 34.8 391.426 33.136L389.346 37.088C391.634 38.908 396.158 40.312 400.734 40.312ZM435.341 7.136C437.317 7.136 438.721 5.68 438.721 3.808C438.721 2.04 437.265 0.635998 435.341 0.635998C433.417 0.635998 431.961 2.092 431.961 3.912C431.961 5.732 433.417 7.136 435.341 7.136ZM432.845 40H437.837V12.44H432.845V40ZM461.305 34.8C460.265 35.632 458.861 36.1 457.405 36.1C454.649 36.1 453.089 34.436 453.089 31.472V16.548H460.993V12.44H453.089V6.408H448.097V12.44H443.417V16.548H448.097V31.68C448.097 37.244 451.269 40.312 456.833 40.312C459.069 40.312 461.357 39.688 462.865 38.388L461.305 34.8ZM470.604 40.312C472.476 40.312 474.036 38.804 474.036 36.724C474.036 34.644 472.476 33.188 470.604 33.188C468.68 33.188 467.068 34.644 467.068 36.724C467.068 38.804 468.68 40.312 470.604 40.312Z" fill="#424242"/>
</svg>
